<?xml version="1.0" standalone="no"?>
<!DOCTYPE svg PUBLIC "-//W3C//DTD SVG 20010904//EN"
 "http://www.w3.org/TR/2001/REC-SVG-20010904/DTD/svg10.dtd">
<svg version="1.0" xmlns="http://www.w3.org/2000/svg"
 width="1091.000000pt" height="1091.000000pt" viewBox="0 0 1091.000000 1091.000000"
 preserveAspectRatio="xMidYMid meet">
<metadata>
Created by potrace 1.11, written by Peter Selinger 2001-2013
</metadata>
<g transform="translate(0.000000,1091.000000) scale(0.100000,-0.100000)"
fill="#000000" stroke="none">
<path d="M8618 7099 c-161 -54 -305 -253 -412 -570 -25 -74 -47 -145 -50 -159
-3 -14 -15 -76 -27 -137 l-22 -113 -41 -1 c-23 -1 -58 0 -79 1 -83 4 -127 -37
-132 -123 -7 -110 22 -135 160 -136 l60 -1 -2 -187 c-1 -141 -5 -190 -15 -198
-7 -5 -28 -28 -47 -50 -62 -74 -174 -185 -207 -206 -46 -28 -89 -31 -116 -9
-21 16 -23 26 -22 97 1 43 14 137 29 208 15 72 29 139 31 150 2 11 7 36 10 55
2 19 9 58 15 87 15 76 13 177 -4 210 -46 88 -157 103 -291 39 -138 -66 -263
-214 -371 -436 l-46 -95 5 55 c6 60 22 140 60 300 37 151 38 175 14 197 -15
14 -35 17 -87 16 -76 -1 -136 -25 -170 -69 -23 -29 -52 -119 -81 -250 -10 -48
-22 -90 -27 -94 -8 -7 -137 -30 -172 -30 -15 0 -22 9 -26 38 -12 72 -47 161
-84 219 -86 132 -196 193 -351 193 -312 1 -544 -257 -555 -617 -9 -282 129
-494 355 -547 75 -18 183 -14 256 8 149 46 290 198 344 371 18 59 25 70 46 71
11 0 49 4 86 8 37 4 71 6 75 4 4 -2 8 -56 10 -120 3 -129 23 -244 51 -291 25
-43 74 -70 127 -69 81 2 120 36 149 128 8 27 31 103 51 169 70 233 225 504
282 493 29 -5 24 -104 -12 -277 -59 -282 -25 -433 112 -493 34 -15 63 -19 131
-17 156 4 263 57 416 210 49 49 89 88 90 87 33 -89 115 -189 190 -232 129 -75
336 -83 475 -19 46 21 143 86 160 107 19 22 24 20 40 -15 54 -123 190 -172
309 -113 81 40 139 113 201 254 19 44 19 45 15 10 -3 -19 -6 -44 -8 -55 -2
-11 -9 -59 -16 -107 -13 -85 -14 -88 -54 -116 -23 -17 -52 -40 -66 -52 -14
-12 -45 -39 -70 -59 -231 -188 -402 -397 -456 -557 -93 -279 22 -479 270 -469
184 8 327 145 436 420 57 142 124 369 154 515 3 14 8 36 11 50 8 34 33 166 39
210 3 19 10 62 16 95 6 33 13 76 16 95 2 19 12 78 20 130 8 52 17 106 19 120
2 14 18 108 35 210 17 102 33 199 36 215 2 17 6 41 9 55 27 149 14 180 -77
184 -70 3 -124 -14 -155 -50 -19 -22 -73 -172 -88 -243 -8 -38 -76 -215 -113
-294 -88 -188 -172 -268 -216 -205 -12 17 -15 42 -11 121 2 54 7 101 9 105 2
4 7 28 11 52 9 64 41 216 64 307 32 131 34 157 14 182 -14 17 -31 22 -74 25
-130 7 -192 -40 -233 -176 -28 -90 -52 -186 -61 -233 -2 -16 -7 -40 -9 -53 -6
-27 -17 -136 -21 -202 -2 -41 -8 -50 -75 -113 -83 -80 -138 -108 -227 -115
-97 -7 -179 32 -217 106 -17 34 -43 131 -51 192 -5 46 -8 351 -2 356 1 2 90 4
197 5 160 1 206 5 255 20 65 21 80 30 111 71 24 31 31 114 12 141 -18 24 -29
25 -196 26 l-144 1 54 53 c111 108 203 261 240 399 17 65 22 111 22 213 0 127
0 132 -32 197 -60 124 -152 162 -284 117z m60 -244 c17 -22 20 -41 20 -117 0
-185 -81 -368 -230 -522 l-60 -61 6 40 c3 22 8 51 10 65 3 14 7 42 10 62 35
233 133 512 193 547 26 15 29 14 51 -14z m-2563 -1087 c-3 -115 34 -209 113
-290 l46 -48 -17 -52 c-36 -115 -101 -178 -190 -186 -46 -3 -57 0 -93 26 -69
50 -104 153 -97 287 9 193 95 323 220 332 18 1 19 -5 18 -69z m3298 -1175 c-8
-32 -17 -65 -18 -73 -27 -118 -102 -314 -147 -385 -53 -84 -97 -112 -140 -91
-76 38 -42 205 75 365 43 59 222 241 236 241 5 0 2 -26 -6 -57z"/>
<path d="M2350 7075 c-186 -53 -310 -221 -337 -460 -34 -299 50 -537 242 -685
30 -23 55 -44 55 -46 0 -14 -118 -229 -166 -302 -174 -269 -324 -368 -454
-302 -47 24 -82 73 -109 152 -19 55 -22 74 -41 228 -8 75 -6 704 3 770 3 19 8
64 11 100 4 36 8 76 10 90 7 56 18 130 30 210 25 168 -23 230 -170 218 -128
-11 -172 -72 -209 -291 -14 -83 -47 -246 -56 -282 -6 -22 -13 -51 -16 -64 -10
-56 -68 -265 -105 -381 -107 -331 -233 -582 -352 -703 -75 -76 -132 -87 -189
-37 -111 97 -160 435 -133 918 4 74 9 141 10 150 2 9 7 58 12 107 9 103 8 91
18 175 5 36 10 74 12 85 3 11 7 49 11 85 18 176 -9 227 -126 237 -113 10 -183
-32 -214 -130 -14 -44 -32 -165 -53 -347 -3 -25 -7 -58 -9 -75 -19 -139 -26
-590 -12 -760 29 -356 128 -632 266 -742 73 -58 134 -76 235 -71 170 10 319
113 462 323 67 97 166 296 208 414 38 106 45 115 46 61 4 -155 47 -382 98
-510 77 -194 175 -279 333 -288 90 -5 159 9 247 50 210 98 467 386 628 703 26
50 50 94 54 98 4 4 36 3 71 -2 35 -6 97 -13 138 -15 40 -3 75 -7 77 -9 2 -2
-8 -39 -22 -83 -36 -110 -39 -294 -7 -399 72 -229 251 -346 533 -346 126 0
227 27 354 94 l101 53 55 -38 c67 -46 186 -94 260 -104 92 -12 223 -8 301 11
237 57 367 191 453 461 30 95 36 126 55 259 7 44 14 91 17 105 l4 25 233 -1
c235 -1 270 4 320 38 74 52 86 199 19 244 -25 17 -48 19 -285 17 -238 -2 -258
0 -253 15 3 9 8 51 11 92 4 41 8 91 10 110 2 19 7 69 10 110 3 41 8 86 10 100
2 14 7 68 10 120 8 114 8 114 17 120 16 12 403 1 618 -17 139 -12 264 -9 292
6 83 44 90 217 10 250 -87 36 -405 61 -792 62 -276 1 -401 -8 -609 -42 -239
-40 -429 -118 -531 -220 -54 -54 -105 -137 -115 -188 -2 -12 -7 -32 -11 -43
-12 -39 -6 -177 11 -235 25 -87 54 -132 100 -156 94 -47 245 7 245 89 0 11
-11 42 -24 67 -29 53 -40 104 -38 164 3 91 66 158 184 197 96 31 315 66 305
49 -3 -5 -8 -44 -12 -88 -3 -44 -8 -98 -10 -120 -2 -22 -7 -69 -10 -105 -7
-72 -15 -146 -30 -286 l-7 -62 -91 -1 c-107 -2 -152 -19 -181 -70 -29 -50 -27
-133 5 -167 33 -36 62 -46 149 -49 97 -5 92 -4 87 -12 -3 -5 -8 -35 -11 -68
-32 -285 -94 -426 -220 -500 -36 -21 -62 -28 -140 -39 -53 -7 -166 28 -219 68
-14 11 -15 19 -8 40 6 14 12 46 15 72 12 130 -68 185 -143 98 -26 -29 -34 -32
-65 -27 -24 4 -44 0 -61 -11 -26 -17 -55 -74 -55 -107 0 -11 -10 -24 -22 -29
-13 -6 -36 -19 -53 -30 -16 -10 -67 -31 -113 -46 -71 -23 -95 -26 -161 -21
-86 5 -146 30 -180 73 -26 33 -26 44 -3 44 27 0 182 54 242 84 124 62 193 130
243 236 27 58 30 75 30 160 0 115 -19 170 -82 235 -107 111 -328 121 -492 22
-38 -23 -62 -31 -75 -27 -10 4 -75 10 -144 14 -127 6 -201 14 -208 20 -2 2 11
49 28 105 76 249 107 519 73 664 -27 121 -99 218 -193 260 -59 27 -185 32
-260 12z m115 -295 c57 -63 59 -270 4 -462 -7 -23 -13 -45 -14 -48 -13 -54
-38 -120 -45 -120 -29 0 -98 97 -125 177 -28 84 -33 253 -8 336 34 119 132
179 188 117z m946 -959 c23 -24 29 -38 29 -73 -1 -94 -61 -167 -185 -223 -87
-40 -125 -50 -126 -33 -11 134 66 304 156 344 51 23 93 18 126 -15z"/>
<path d="M10510 6115 c-25 -8 -58 -27 -72 -42 -15 -16 -55 -91 -88 -168 -112
-255 -168 -354 -286 -505 -24 -30 -66 -83 -93 -118 -58 -73 -71 -123 -46 -172
21 -40 53 -54 102 -46 67 13 238 205 345 389 l46 77 32 -37 c74 -84 152 -245
134 -275 -4 -6 -27 -7 -57 -3 -115 16 -182 1 -230 -50 -71 -77 -38 -207 66
-262 50 -26 147 -41 210 -32 200 27 342 206 333 422 -3 87 -27 141 -122 272
-157 216 -160 224 -124 335 12 38 26 70 30 70 9 0 30 71 30 102 0 14 -6 31
-14 37 -21 18 -145 21 -196 6z"/>
</g>
</svg>
